:SAMPLES-PER-SECOND 30
:FULLY-SPECIFIED
:DEGREES
296
root  34.71117996 36.49434067 -14.91622624 8.341682434 -7.621975899 3.778443098
lowerback  -7.515840054 -1.965070009 -1.058819771
upperback  -4.222670078 -2.132169962 -2.775369883
thorax  -0.2152190059 -0.9081779718 -2.418299913
lowerneck  -7.176229954 -11.72809982 -10.64820004
upperneck  16.77099991 -16.11540031 10.70559978
head  8.116483688 -7.3259902 3.590693474
lclavicle  0 -4.497500157e-015 -2.743230041e-014
lhumerus  -49.93880081 28.4368 63.74549866
lradius  -2.057401616e-006 -6.507048965e-006 31.39229965
lwrist  4.824992743e-007 -3.790274832e-007 -26.40340042
lhand  -4.387430788e-031 -36.40639877 -10.70549965
lfingers  90 7.125020027 -90
lthumb  94.59101029 -25.55793571 100.5437188
rclavicle  0 -4.497500157e-015 -2.743230041e-014
rhumerus  -65.11830139 -32.08330154 -39.61940002
rradius  -5.16745672e-007 2.214343908e-008 71.28540039
rwrist  -0.0001011603963 0.007538665552 -174.2189941
rhand  -1.770594492e-031 4.320660114 -4.783820152
rfingers  -90 -7.125020027 -90
rthumb  -83.68702182 -10.90218098 -59.67516333
rfemur  -12.90741158 16.64749336 12.67590714
rtibia  -1.369535089 -1.638161898 21.4038372
rfoot  0.2414604574 -23.26964188 -34.64932632
rtoes  3.877184092 19.63570209 -101.4025981
lfemur  -8.200062752 -16.52359962 -20.59404564
ltibia  2.302493811 -1.811366796 15.34376049
lfoot  1.041478992 -22.14158058 38.57748413
ltoes  -8.582397224 -18.13344845 -115.8695659
297
root  34.71089461 36.49224109 -14.91524704 8.368411064 -7.638413429 3.763244152
lowerback  -7.504580021 -1.950090051 -1.094640017
upperback  -4.220990181 -2.110949993 -2.766200066
thorax  -0.2171860039 -0.8971220255 -2.386889935
lowerneck  -7.178140163 -11.7336998 -10.65229988
upperneck  16.76580048 -16.11880112 10.68490028
head  8.113949776 -7.331260204 3.583960056
lclavicle  0 -4.497500157e-015 -2.743230041e-014
lhumerus  -49.86429977 28.3885994 63.81900024
lradius  -2.057401616e-006 -6.507048965e-006 31.38579941
lwrist  4.824992743e-007 -3.790274832e-007 -26.38019943
lhand  -0 -36.44319916 -10.77050018
lfingers  90 7.125020027 -90
lthumb  94.6215456 -25.62064896 100.5888757
rclavicle  0 -4.497500157e-015 -2.743230041e-014
rhumerus  -64.80889893 -32.40969849 -39.92329788
rradius  -5.16745672e-007 2.214343908e-008 69.58709717
rwrist  -0.0001011603963 0.007538665552 -174.1109924
rhand  -1.772387816e-031 5.02989006 -5.258230209
rfingers  -90 -7.125020027 -90
rthumb  -83.74212933 -10.52569683 -59.024498
rfemur  -12.96439934 16.704216 12.67765427
rtibia  -1.363041401 -1.607193232 21.44527054
rfoot  0.2259391844 -23.23374748 -34.6673584
rtoes  3.889286348 19.63339947 -101.4386146
lfemur  -8.208976746 -16.47233391 -20.57156372
ltibia  2.298090696 -1.754985571 15.31475639
lfoot  1.041854739 -22.24012375 38.58865738
ltoes  -8.578511328 -18.13523869 -115.857081
298
root  34.70779479 36.49154122 -14.91428586 8.377818108 -7.634187222 3.755074978
lowerback  -7.508389473 -1.930150032 -1.086109996
upperback  -4.22640419 -2.083980083 -2.772399902
thorax  -0.2226479948 -0.8834339976 -2.396189928
lowerneck  -7.199580193 -11.74890041 -10.64770031
upperneck  16.80067635 -16.13868904 10.67663383
head  8.133170128 -7.338590622 3.573410034
lclavicle  0 -4.497500157e-015 -2.743230041e-014
lhumerus  -49.80950165 28.4192009 63.8125
lradius  -2.057401616e-006 -6.507048965e-006 31.35859871
lwrist  4.824992743e-007 -3.790274832e-007 -26.49510002
lhand  -4.396359462e-031 -36.56389999 -10.77190018
lfingers  90 7.125020027 -90
lthumb  94.67855814 -25.61779664 100.7181474
rclavicle  0 -4.497500157e-015 -2.743230041e-014
rhumerus  -64.50749969 -32.69639969 -40.19740295
rradius  -5.16745672e-007 2.214343908e-008 67.94419861
rwrist  -0.0001011603963 0.007538665552 -173.5890045
rhand  -0 4.728330135 -5.285369873
rfingers  -90 -7.125020027 -90
rthumb  -83.83681797 -10.48820629 -59.32298153
rfemur  -12.99702835 16.6956749 12.68228722
rtibia  -1.355021 -1.609716415 21.49127388
rfoot  0.1860624552 -23.29041672 -34.69334412
rtoes  3.900425752 19.63127342 -101.4717692
lfemur  -8.146079063 -16.39476585 -20.56782722
ltibia  2.33726573 -1.69351685 15.19130421
lfoot  1.030729175 -22.28701973 38.59371948
ltoes  -8.55589799 -18.14563667 -115.7844504
299
root  34.70245121 36.48866368 -14.91358449 8.379514694 -7.603363037 3.74673605
lowerback  -7.517529964 -1.917559981 -1.085740209
upperback  -4.230160236 -2.067399979 -2.759639978
thorax  -0.2181199938 -0.8751170039 -2.3822999
lowerneck  -7.222970009 -11.76749992 -10.70769978
upperneck  16.83274841 -16.1599865 10.6892662
head  8.154569626 -7.349359512 3.583950043
lclavicle  0 -4.497500157e-015 -2.743230041e-014
lhumerus  -49.74710083 28.44809914 63.86050034
lradius  -2.057401616e-006 -6.507048965e-006 31.3355999
lwrist  4.824992743e-007 -3.790274832e-007 -26.5618
lhand  -4.406895947e-031 -36.74819946 -10.74100018
lfingers  90 7.125020027 -90
lthumb  94.7587523 -25.58097149 100.9126007
rclavicle  0 -4.497500157e-015 -2.743230041e-014
rhumerus  -64.06230164 -32.84420013 -40.51739502
rradius  -5.16745672e-007 2.214343908e-008 66.24459839
rwrist  -0.0001011603963 0.007538665552 -172.7769928
rhand  -1.77122276e-031 4.581779957 -4.886229992
rfingers  -90 -7.125020027 -90
rthumb  -83.6692091 -10.82508568 -59.42855957
rfemur  -13.00086784 16.74836922 12.70503044
rtibia  -1.355512857 -1.571815133 21.51132393
rfoot  0.1748576015 -23.23389244 -34.74956894
rtoes  3.900746133 19.63121218 -101.4727228
lfemur  -8.134543419 -16.36854553 -20.55483055
ltibia  2.338769913 -1.696051955 15.16487408
lfoot  0.9770493507 -22.24747467 38.47349548
ltoes  -8.541473009 -18.15225164 -115.7381405
